<?xml version="1.0" standalone="no"?>
<!DOCTYPE svg PUBLIC "-//W3C//DTD SVG 20010904//EN"
 "http://www.w3.org/TR/2001/REC-SVG-20010904/DTD/svg10.dtd">
<svg version="1.0" xmlns="http://www.w3.org/2000/svg"
 width="1242.000000pt" height="2208.000000pt" viewBox="0 0 1242.000000 2208.000000"
 preserveAspectRatio="xMidYMid meet">

<g transform="translate(0.000000,2208.000000) scale(0.100000,-0.100000)"
fill="#000000" stroke="none">
<path d="M0 11040 l0 -11040 6210 0 6210 0 0 11040 0 11040 -6210 0 -6210 0 0
-11040z m11702 10693 c10 -9 18 -22 18 -30 0 -8 16 -21 35 -28 44 -19 55 -41
55 -109 0 -61 -22 -96 -60 -96 -13 0 -22 -9 -26 -27 -15 -64 -10 -63 -309 -63
-269 0 -272 0 -323 25 -142 68 -144 249 -4 319 46 23 54 24 321 25 242 1 277
-1 293 -16z m-10926 -18 c41 -32 58 -82 51 -156 -6 -69 -32 -118 -73 -139 -16
-8 -30 -18 -32 -22 -7 -15 -52 -8 -52 7 0 8 8 15 18 15 46 0 112 70 99 105 -6
14 -9 14 -32 -1 -62 -40 -135 15 -135 103 0 35 6 48 35 78 43 42 75 45 121 10z
m424 -90 c0 -114 0 -115 25 -121 31 -8 32 -22 3 -26 -19 -2 -24 -10 -26 -45
-3 -35 -7 -43 -23 -43 -16 0 -19 7 -19 45 l0 45 -75 0 c-49 0 -75 4 -75 11 0
10 40 74 134 216 11 18 29 33 39 33 15 0 17 -12 17 -115z m320 100 c0 -12 -13
-15 -59 -15 -84 0 -91 -4 -91 -55 l0 -43 44 5 c37 5 48 1 76 -24 29 -26 32
-35 32 -81 0 -55 -22 -102 -47 -102 -8 0 -15 -4 -15 -10 0 -5 -15 -10 -34 -10
-25 0 -44 9 -70 34 -36 33 -47 66 -23 66 6 0 20 -13 29 -30 38 -67 120 -41
126 41 4 57 -23 89 -73 89 -19 0 -37 -4 -40 -10 -3 -5 -16 -10 -27 -10 -18 0
-20 4 -14 38 3 20 6 58 6 85 l0 47 90 0 c73 0 90 -3 90 -15z m8310 -170 l0
-175 -25 0 -25 0 0 175 0 175 25 0 25 0 0 -175z m737 130 c29 -15 60 -36 70
-47 16 -18 16 -20 -5 -40 l-22 -22 -27 20 c-60 45 -97 58 -163 58 -66 0 -103
-13 -163 -58 l-27 -20 -22 21 c-25 26 -18 39 39 75 64 39 104 48 188 45 65 -3
90 -8 132 -32z m-819 -162 l3 -143 -26 0 -25 0 0 146 c0 145 0 145 23 142 21
-3 22 -6 25 -145z m-8798 107 c0 -13 -7 -20 -20 -20 -13 0 -20 7 -20 20 0 13
7 20 20 20 13 0 20 -7 20 -20z m8720 -140 l0 -110 -25 0 -25 0 0 110 0 110 25
0 25 0 0 -110z m826 74 c50 -24 58 -37 36 -64 l-18 -22 -39 21 c-22 12 -47 21
-55 21 -8 0 -33 -9 -55 -21 l-39 -21 -18 23 c-16 18 -17 25 -6 35 45 44 133
57 194 28z m-906 -109 c0 -73 -1 -75 -25 -75 -24 0 -25 2 -25 75 0 73 1 75 25
75 24 0 25 -2 25 -75z m-80 -30 c0 -41 -2 -45 -25 -45 -23 0 -25 4 -25 45 0
41 2 45 25 45 23 0 25 -4 25 -45z m-8562 -13 c3 -17 -2 -22 -17 -22 -14 0 -21
6 -21 18 0 38 33 41 38 4z m9497 -2 c0 -18 -6 -26 -23 -28 -24 -4 -38 18 -28
44 3 9 15 14 28 12 17 -2 23 -10 23 -28z m907 -1131 c72 -20 156 -65 213 -116
45 -40 104 -125 131 -190 26 -63 28 -78 29 -198 0 -118 -3 -136 -27 -192 -48
-112 -110 -187 -210 -253 -65 -42 -188 -80 -263 -80 -75 0 -198 38 -263 80
-100 66 -162 141 -210 253 -24 56 -27 74 -27 192 1 120 3 135 29 198 63 150
182 258 335 303 96 29 164 30 263 3z m-9032 -878 c170 -45 342 -143 466 -267
350 -350 391 -913 96 -1310 -134 -180 -308 -301 -537 -371 -84 -25 -102 -27
-270 -27 -168 0 -186 2 -270 27 -182 56 -316 135 -441 261 -180 182 -277 403
-291 662 -26 498 303 926 797 1035 118 26 329 21 450 -10z m-200 -2821 c0
-127 -2 -150 -15 -150 -13 0 -15 23 -15 150 0 127 2 150 15 150 13 0 15 -23
15 -150z m790 0 c0 -127 -2 -150 -15 -150 -13 0 -15 23 -15 150 0 127 2 150
15 150 13 0 15 -23 15 -150z m-1530 115 c0 -11 -12 -15 -50 -15 l-50 0 0 -125
c0 -104 -2 -125 -15 -125 -13 0 -15 21 -15 125 l0 125 -50 0 c-38 0 -50 4 -50
15 0 12 19 15 115 15 96 0 115 -3 115 -15z m1144 -6 c32 -25 35 -71 7 -96 -19
-16 -19 -17 5 -35 34 -27 33 -79 -2 -107 -23 -18 -41 -21 -115 -21 l-89 0 0
140 0 140 84 0 c69 0 88 -4 110 -21z m-824 -24 c0 -21 5 -25 30 -25 20 0 30
-5 30 -15 0 -10 -10 -15 -30 -15 l-31 0 3 -72 c3 -69 4 -73 28 -76 14 -2 32
-5 40 -8 13 -4 13 -6 0 -14 -23 -15 -62 -12 -82 7 -14 13 -18 31 -18 90 0 66
-2 73 -20 73 -11 0 -20 7 -20 15 0 8 9 15 20 15 15 0 20 7 20 25 0 16 6 25 15
25 9 0 15 -9 15 -25z m-151 -39 c91 -48 51 -196 -53 -196 -60 0 -106 47 -106
107 1 80 85 127 159 89z m425 -7 c24 -19 26 -26 26 -105 0 -66 -3 -84 -14 -84
-8 0 -16 6 -19 13 -4 10 -7 10 -18 0 -37 -35 -129 -1 -129 47 0 38 35 60 95
60 58 0 67 9 42 44 -13 18 -58 20 -106 5 -24 -7 -23 17 1 29 38 18 93 14 122
-9z m790 0 c24 -19 26 -26 26 -105 0 -66 -3 -84 -14 -84 -8 0 -16 6 -19 13 -4
10 -7 10 -18 0 -37 -35 -129 -1 -129 47 0 38 35 60 95 60 58 0 67 9 42 44 -13
18 -58 20 -106 5 -24 -7 -23 17 1 29 38 18 93 14 122 -9z m370 0 c24 -19 26
-26 26 -105 0 -66 -3 -84 -14 -84 -8 0 -16 6 -19 13 -4 10 -7 10 -18 0 -37
-35 -129 -1 -129 47 0 38 35 60 95 60 58 0 67 9 42 44 -13 18 -58 20 -106 5
-24 -7 -23 17 1 29 38 18 93 14 122 -9z m136 5 c0 -14 2 -14 22 0 34 24 85 20
113 -9 22 -22 25 -32 25 -105 0 -64 -3 -80 -15 -80 -12 0 -15 15 -15 72 0 81
-15 108 -62 108 -49 0 -68 -30 -68 -110 0 -56 -3 -70 -15 -70 -12 0 -15 18
-15 105 0 87 3 105 15 105 8 0 15 -7 15 -16z m411 -3 c29 -24 18 -38 -16 -23
-44 20 -81 15 -104 -14 -57 -72 17 -152 104 -112 34 15 45 1 16 -23 -45 -36
-130 -19 -157 32 -27 54 -11 119 37 145 35 20 93 17 120 -5z m230 -10 c17 -17
29 -40 29 -55 0 -26 0 -26 -85 -26 -47 0 -85 -4 -85 -9 0 -4 9 -20 21 -35 15
-20 29 -26 58 -26 20 0 42 5 49 12 9 9 15 9 23 1 16 -16 -27 -43 -68 -43 -66
0 -113 43 -113 105 0 92 107 140 171 76z m-2394 -568 c56 -30 78 -65 78 -129
0 -44 -4 -58 -26 -79 l-26 -26 33 -33 c38 -38 49 -72 40 -121 -17 -90 -117
-143 -249 -132 -121 10 -187 69 -187 167 0 36 6 48 39 81 21 22 35 39 30 39
-18 0 -49 66 -49 105 0 69 49 127 123 146 51 13 152 4 194 -18z m449 12 c87
-25 138 -99 150 -213 19 -174 -75 -302 -234 -318 -61 -7 -157 9 -168 28 -4 5
2 28 12 50 16 35 20 38 43 31 52 -16 138 -9 168 13 28 21 72 108 61 120 -4 3
-19 -3 -34 -13 -43 -28 -157 -25 -206 5 -50 31 -83 99 -74 154 13 79 44 115
124 144 49 17 97 17 158 -1z m2156 -12 c72 -42 99 -132 62 -206 -9 -18 -55
-71 -102 -119 l-87 -88 113 0 112 0 0 -50 0 -50 -200 0 -200 0 0 39 c0 37 6
45 116 148 119 111 144 144 144 187 0 29 -42 66 -77 66 -24 0 -75 -20 -105
-42 -13 -10 -24 -7 -57 17 l-42 28 23 25 c26 27 69 52 113 63 49 13 151 3 187
-18z m-1584 -15 c-62 -84 -198 -277 -198 -282 0 -3 32 -6 71 -6 61 0 70 2 68
18 -1 9 -1 32 0 50 l1 32 55 0 55 0 0 -50 0 -50 40 0 40 0 0 -50 0 -50 -40 0
-40 0 0 -55 0 -55 -60 0 -60 0 0 55 0 55 -140 0 -140 0 0 43 c0 38 11 57 123
209 l122 168 64 0 63 0 -24 -32z m572 -5 c0 -26 -30 -110 -97 -265 l-98 -228
-62 0 c-35 0 -63 3 -63 8 0 4 36 90 81 192 45 102 85 195 90 208 8 22 8 22
-76 22 l-84 0 -3 -42 c-2 -24 -6 -42 -10 -40 -5 1 -28 2 -53 2 l-45 0 0 90 0
90 210 0 210 0 0 -37z m622 -2 c3 -36 -2 -46 -54 -107 l-58 -68 38 -12 c146
-50 131 -250 -24 -299 -79 -25 -216 -10 -269 29 -20 14 -20 15 2 59 l22 45 38
-19 c88 -43 195 -30 209 25 13 52 -33 86 -117 86 -27 0 -29 2 -29 43 0 38 6
50 51 100 l51 57 -111 0 -111 0 0 50 0 50 179 0 179 0 4 -39z m968 -2 c0 -28
-21 -88 -68 -197 -38 -86 -82 -187 -98 -224 l-28 -68 -63 0 c-35 0 -63 3 -63
8 0 4 36 90 81 192 45 102 85 195 90 208 8 22 8 22 -76 22 l-85 0 0 -40 0 -40
-55 0 -55 0 0 90 0 90 210 0 210 0 0 -41z m533 -172 c18 -8 39 -22 47 -32 13
-15 12 -19 -9 -36 -23 -19 -25 -19 -43 -2 -28 25 -99 24 -127 -1 -12 -11 -26
-36 -32 -57 -23 -75 42 -149 117 -135 33 7 34 8 34 56 0 28 3 50 8 51 4 0 20
2 35 3 l28 2 -3 -71 c-3 -65 -5 -71 -31 -83 -15 -8 -51 -16 -80 -18 -101 -10
-187 67 -187 166 0 20 10 56 23 80 37 76 138 111 220 77z m760 0 c18 -8 38
-22 46 -31 13 -15 12 -20 -7 -38 -20 -21 -22 -21 -40 -4 -54 48 -142 19 -162
-53 -27 -102 87 -182 162 -114 18 16 20 15 40 -5 19 -18 20 -23 7 -38 -38 -47
-130 -56 -199 -21 -52 25 -90 88 -90 147 0 20 10 56 23 80 37 76 138 111 220
77z m-383 -19 c64 -33 85 -67 85 -138 0 -111 -68 -160 -222 -160 l-93 0 0 160
0 160 93 0 c76 0 100 -4 137 -22z m-2350 -188 c27 -27 25 -66 -5 -95 -29 -30
-68 -32 -95 -5 -24 24 -26 77 -3 102 22 24 77 24 103 -2z m-1990 -665 c0 -20
7 -26 40 -35 24 -6 40 -17 40 -26 0 -11 -4 -12 -19 -4 -11 5 -29 10 -40 10
-19 0 -21 -6 -21 -59 0 -57 1 -59 30 -64 89 -18 93 -118 5 -147 -27 -9 -35
-17 -35 -36 0 -13 -4 -24 -10 -24 -5 0 -10 11 -10 24 0 17 -7 27 -22 31 -53
15 -78 28 -78 41 0 12 5 12 30 -1 16 -8 38 -15 50 -15 18 0 20 6 20 55 l0 54
-44 20 c-35 15 -45 26 -51 50 -9 42 13 76 60 91 27 9 35 17 35 36 0 13 5 24
10 24 6 0 10 -11 10 -25z m376 -42 c-33 -88 -134 -293 -144 -293 -18 0 -12 16
54 157 30 64 52 118 50 120 -3 3 -29 5 -58 5 -103 -1 -98 1 -98 -32 0 -20 -5
-30 -15 -30 -11 0 -15 12 -15 45 l0 45 116 0 c106 0 116 -1 110 -17z m144 -83
l-81 -100 71 0 70 0 0 35 c0 24 5 35 15 35 10 0 15 -11 15 -35 0 -32 2 -35 31
-35 38 0 35 -24 -4 -28 -24 -3 -27 -7 -27 -43 0 -28 -4 -39 -15 -39 -11 0 -15
11 -15 40 l0 40 -47 1 c-27 0 -67 0 -90 -1 -27 -1 -43 3 -43 10 0 11 95 134
149 193 13 15 31 27 38 27 8 0 -22 -45 -67 -100z m390 94 c0 -23 -137 -304
-148 -304 -18 0 -12 16 54 157 30 64 53 117 52 118 -6 6 -34 7 -95 6 -62 -1
-63 -1 -63 -29 0 -19 -5 -29 -15 -29 -11 0 -15 12 -15 44 l0 43 115 0 c63 0
115 -3 115 -6z m243 -11 c-4 -10 -24 -38 -45 -63 l-38 -45 40 -17 c90 -38 73
-145 -26 -164 -51 -9 -144 22 -130 45 5 8 14 7 29 -3 20 -13 57 -20 100 -17
24 1 57 37 57 61 0 32 -36 60 -75 60 -20 0 -35 5 -35 12 0 6 18 33 40 59 22
26 40 50 40 53 0 3 -32 6 -72 8 -46 2 -73 7 -76 16 -3 9 21 12 97 12 91 0 100
-2 94 -17z m257 -138 c0 -131 -2 -155 -15 -155 -13 0 -15 22 -15 140 l0 140
-24 0 c-31 0 -56 10 -56 21 0 5 25 9 55 9 l55 0 0 -155z m235 141 c38 -16 52
-48 40 -93 -3 -14 -38 -59 -77 -100 l-71 -73 80 0 c63 0 82 -3 87 -15 5 -13
-11 -15 -104 -15 -81 0 -110 3 -110 12 0 7 38 50 85 95 69 67 85 88 85 112 0
43 -23 61 -80 61 -27 0 -52 -4 -55 -10 -9 -14 -37 -12 -33 3 5 14 62 36 96 36
12 1 38 -5 57 -13z m288 0 c44 -18 67 -57 74 -120 11 -107 -56 -188 -142 -172
-119 23 -141 236 -31 290 39 19 58 20 99 2z m1257 0 c0 -7 13 -16 29 -19 23
-5 28 -10 24 -26 -4 -16 -11 -19 -29 -15 -35 9 -31 -17 6 -38 23 -13 30 -24
30 -48 0 -26 -5 -34 -30 -43 -16 -6 -30 -17 -30 -24 0 -7 -7 -13 -15 -13 -8 0
-15 7 -15 15 0 8 -8 15 -19 15 -24 0 -42 22 -32 39 5 8 17 11 30 6 30 -9 27
19 -5 39 -33 22 -31 76 4 91 12 5 22 15 22 22 0 7 7 13 15 13 8 0 15 -6 15
-14z m-247 -91 c56 -113 55 -115 -53 -115 -74 0 -90 3 -90 15 0 26 79 175 93
175 7 0 29 -34 50 -75z m457 55 c15 -15 20 -33 20 -70 0 -62 -23 -90 -75 -90
-52 0 -75 28 -75 90 0 62 23 90 75 90 22 0 43 -8 55 -20z m230 0 c15 -15 20
-33 20 -70 0 -62 -23 -90 -75 -90 -52 0 -75 28 -75 90 0 62 23 90 75 90 22 0
43 -8 55 -20z m170 0 c15 -15 20 -33 20 -70 0 -62 -23 -90 -75 -90 -52 0 -75
28 -75 90 0 62 23 90 75 90 22 0 43 -8 55 -20z m180 5 c0 -9 -14 -49 -31 -90
-27 -63 -35 -75 -55 -75 -13 0 -24 2 -24 5 0 3 11 33 25 67 14 34 25 63 25 65
0 2 -9 3 -20 3 -11 0 -20 -4 -20 -10 0 -5 -9 -10 -20 -10 -16 0 -20 7 -20 30
l0 30 70 0 c56 0 70 -3 70 -15z m-492 -142 c3 -19 -1 -23 -22 -23 -21 0 -26 5
-26 26 0 21 4 25 23 22 14 -2 23 -11 25 -25z m-2229 -109 c-9 -11 -15 -12 -25
-3 -11 9 -12 15 -3 25 9 11 15 12 25 3 11 -9 12 -15 3 -25z m3966 -2554 c0
-13 -26 -15 -159 -18 -154 -2 -187 3 -171 27 4 8 58 11 168 9 136 -3 162 -5
162 -18z m-3137 -68 l3 -71 72 -3 c56 -2 72 -6 72 -18 0 -12 -16 -16 -72 -18
l-72 -3 -3 -72 c-2 -56 -6 -72 -18 -72 -12 0 -16 16 -18 72 l-3 72 -72 3 c-56
2 -72 6 -72 18 0 12 16 16 73 18 l72 3 0 68 c0 37 3 71 7 75 18 17 28 -7 31
-72z m5897 -133 c0 -139 -2 -164 -15 -164 -13 0 -15 25 -18 155 -3 161 0 184
21 177 9 -3 12 -45 12 -168z m-2873 65 c51 -55 55 -62 33 -70 -10 -4 -26 2
-40 16 l-24 23 -3 -124 c-3 -102 -6 -124 -18 -124 -12 0 -16 23 -20 124 -5
122 -5 123 -24 102 -21 -23 -41 -27 -51 -10 -8 11 73 106 92 108 7 1 32 -20
55 -45z m2722 -12 c25 -23 46 -47 46 -52 0 -10 -85 -92 -101 -98 -21 -8 -20
30 1 53 l23 24 -124 3 c-102 3 -124 6 -124 18 0 12 22 15 124 18 l124 3 -23
24 c-14 14 -20 30 -16 40 8 22 15 18 70 -33z m-5940 -1152 c37 -14 52 -51 36
-90 -7 -16 -17 -30 -23 -30 -5 0 2 -9 17 -21 32 -25 35 -68 5 -95 -17 -15 -40
-20 -110 -22 l-89 -4 0 136 0 136 69 0 c38 0 81 -4 95 -10z m3366 -160 c0
-118 -2 -140 -15 -140 -13 0 -15 22 -15 140 0 118 2 140 15 140 13 0 15 -22
15 -140z m110 0 c0 -118 -2 -140 -15 -140 -13 0 -15 22 -15 140 0 118 2 140
15 140 13 0 15 -22 15 -140z m2782 125 c-2 -5 -9 -9 -14 -7 -24 7 -48 -10 -48
-34 0 -20 5 -24 30 -24 17 0 30 -4 30 -10 0 -5 -13 -10 -30 -10 l-30 0 0 -90
c0 -73 -3 -90 -15 -90 -12 0 -15 17 -15 90 0 73 -3 90 -15 90 -8 0 -15 5 -15
10 0 6 7 10 15 10 9 0 15 9 15 22 0 34 29 59 64 56 17 -2 29 -7 28 -13z
m-3253 -9 c32 -18 12 -28 -33 -15 -62 17 -119 -26 -86 -66 6 -8 35 -21 64 -29
82 -24 107 -67 68 -116 -24 -30 -97 -38 -140 -16 -30 15 -47 44 -19 32 60 -24
85 -28 113 -15 32 16 42 42 24 64 -6 8 -36 21 -66 30 -65 19 -91 50 -77 92 16
49 97 69 152 39z m2271 4 c0 -5 -20 -10 -45 -10 l-45 0 0 -125 c0 -104 -2
-125 -15 -125 -13 0 -15 21 -15 125 l0 125 -45 0 c-25 0 -45 5 -45 10 0 6 42
10 105 10 63 0 105 -4 105 -10z m-5130 -88 c0 -75 11 -97 52 -107 21 -5 33 -1
52 19 23 22 26 34 26 91 0 51 3 65 15 65 12 0 15 -18 15 -100 0 -82 -3 -100
-15 -100 -8 0 -15 7 -15 16 0 14 -2 14 -22 0 -43 -31 -101 -19 -123 25 -21 39
-21 159 0 159 12 0 15 -14 15 -68z m264 -14 l37 -83 36 83 c20 45 42 82 49 82
15 0 8 -19 -61 -167 -45 -96 -65 -114 -114 -98 -28 8 -16 27 12 20 25 -6 39 2
54 29 8 15 5 32 -14 75 -61 135 -63 141 -49 141 7 0 29 -37 50 -82z m2820 20
c15 -13 29 -38 32 -55 l7 -33 -82 0 c-85 0 -100 -10 -63 -42 28 -26 60 -31 92
-15 36 18 50 5 18 -17 -63 -44 -159 8 -158 86 2 79 97 126 154 76z m2116 7 c0
-19 9 -19 34 0 23 17 46 20 46 5 0 -5 -11 -12 -25 -16 -35 -9 -45 -32 -45
-108 0 -52 -3 -66 -15 -66 -12 0 -15 18 -15 100 0 60 4 100 10 100 6 0 10 -7
10 -15z m251 -4 c21 -17 24 -30 27 -100 4 -67 2 -81 -11 -81 -8 0 -17 5 -19
11 -3 9 -9 9 -25 0 -48 -25 -113 0 -113 44 0 34 36 55 92 55 41 0 48 3 48 20
0 11 -11 27 -25 36 -20 13 -31 14 -56 5 -40 -14 -49 -14 -49 -1 0 31 97 38
131 11z m129 4 c0 -19 9 -19 34 0 38 29 89 17 111 -26 21 -39 21 -159 0 -159
-12 0 -15 14 -15 70 0 58 -4 74 -21 91 -15 15 -28 19 -47 14 -41 -10 -52 -32
-52 -107 0 -54 -3 -68 -15 -68 -12 0 -15 18 -15 100 0 60 4 100 10 100 6 0 10
-7 10 -15z m356 2 c15 -15 -8 -24 -35 -14 -22 8 -36 8 -56 -1 -40 -18 -28 -44
25 -60 62 -18 75 -26 78 -48 6 -39 -22 -59 -82 -59 -30 0 -61 6 -67 12 -20 20
-4 25 39 13 45 -14 85 0 80 27 -3 16 -22 24 -80 37 -51 12 -61 71 -15 94 21
11 102 10 113 -1z m348 -9 c15 -13 29 -38 32 -55 l7 -33 -82 0 c-85 0 -100
-10 -63 -42 28 -26 60 -31 92 -15 36 18 50 5 18 -17 -63 -44 -159 8 -158 86 2
79 97 126 154 76z m116 7 c0 -19 9 -19 34 0 23 17 46 20 46 5 0 -5 -11 -12
-25 -16 -35 -9 -45 -32 -45 -108 0 -52 -3 -66 -15 -66 -12 0 -15 18 -15 100 0
60 4 100 10 100 6 0 10 -7 10 -15z m-6134 -3026 c8 -14 -21 -43 -35 -35 -19
12 -13 46 8 46 11 0 23 -5 27 -11z m5992 -11 c-2 -13 -10 -23 -18 -23 -8 0
-16 10 -18 23 -3 17 2 22 18 22 16 0 21 -5 18 -22z m1092 -138 c0 -143 -1
-150 -20 -150 -19 0 -20 7 -20 150 0 143 1 150 20 150 19 0 20 -7 20 -150z
m100 0 c0 -143 -1 -150 -20 -150 -19 0 -20 7 -20 150 0 143 1 150 20 150 19 0
20 -7 20 -150z m-8870 125 c0 -11 -11 -15 -40 -15 l-40 0 0 -130 c0 -123 -1
-130 -20 -130 -19 0 -20 7 -20 130 l0 130 -34 0 c-34 0 -52 11 -39 24 3 3 48
6 100 6 76 0 93 -3 93 -15z m7421 -105 c24 -66 46 -120 49 -120 3 0 25 54 48
120 35 96 48 120 63 120 18 0 18 -1 -1 -52 -91 -241 -87 -233 -111 -233 -19 0
-29 17 -76 140 -29 77 -53 141 -53 142 0 2 8 3 19 3 15 0 27 -25 62 -120z
m-5881 86 c0 -19 6 -25 28 -28 28 -3 39 -32 12 -34 -8 -1 -21 -2 -28 -3 -10
-1 -12 -21 -10 -78 3 -77 3 -78 31 -81 39 -5 35 -32 -5 -32 -54 0 -68 22 -68
112 0 63 -3 78 -15 78 -8 0 -15 9 -15 20 0 11 7 20 15 20 9 0 15 9 15 25 0 18
5 25 20 25 15 0 20 -7 20 -24z m-1450 -42 c0 -14 2 -14 22 0 30 22 48 20 48
-4 0 -12 -7 -20 -17 -20 -39 0 -53 -29 -53 -112 0 -71 -2 -78 -20 -78 -19 0
-20 7 -20 108 0 60 3 112 7 115 12 13 33 7 33 -9z m264 -5 l26 -20 0 21 c0 15
5 20 18 18 15 -3 17 -18 20 -116 3 -107 2 -112 -18 -112 -11 0 -20 7 -20 16 0
14 -2 14 -22 0 -26 -18 -90 -21 -119 -6 -28 15 -49 63 -49 111 0 33 6 47 34
75 41 41 89 46 130 13z m166 5 c0 -14 2 -14 22 0 28 20 77 20 105 1 30 -21 44
-71 41 -148 -2 -57 -5 -67 -20 -67 -16 0 -18 10 -18 75 0 67 -3 79 -25 100
-30 31 -52 31 -82 3 -20 -19 -23 -31 -23 -100 0 -71 -2 -78 -20 -78 -19 0 -20
7 -20 108 0 60 3 112 7 115 12 13 33 7 33 -9z m354 -5 c29 -22 35 -49 11 -49
-8 0 -24 9 -35 20 -23 23 -39 25 -64 7 -27 -20 -9 -46 40 -58 69 -18 96 -62
63 -103 -17 -21 -29 -26 -67 -26 -47 0 -92 28 -92 57 0 20 34 15 48 -7 15 -24
64 -27 82 -5 18 21 -1 40 -55 55 -48 13 -59 22 -69 57 -5 17 -1 29 18 48 31
31 83 33 120 4z m240 0 l26 -20 0 21 c0 15 5 20 18 18 15 -3 17 -18 20 -116 3
-107 2 -112 -18 -112 -11 0 -20 7 -20 16 0 14 -2 14 -22 0 -26 -18 -90 -21
-119 -6 -28 15 -49 63 -49 111 0 33 6 47 34 75 41 41 89 46 130 13z m297 -8
c16 -16 29 -34 29 -40 0 -18 -31 -12 -48 9 -27 30 -64 34 -95 10 -22 -18 -27
-30 -27 -66 0 -53 26 -84 70 -84 18 0 37 8 47 20 17 19 53 28 53 13 0 -4 -12
-20 -27 -35 -21 -22 -36 -28 -71 -28 -24 0 -52 5 -63 10 -28 15 -49 63 -49
111 0 33 6 47 34 75 46 46 104 48 147 5z m269 -86 c0 -108 -1 -115 -20 -115
-19 0 -20 7 -20 108 0 110 3 122 27 122 10 0 13 -26 13 -115z m219 100 c65
-33 76 -131 21 -187 -23 -23 -37 -28 -75 -28 -57 0 -80 12 -100 50 -56 109 48
221 154 165z m141 -1 c0 -14 2 -14 22 0 28 20 77 20 105 1 30 -21 43 -68 40
-147 -2 -57 -5 -68 -19 -68 -16 0 -18 10 -18 75 0 67 -3 79 -25 100 -30 31
-52 31 -82 3 -20 -19 -23 -31 -23 -100 0 -71 -2 -78 -20 -78 -19 0 -20 7 -20
108 0 60 3 112 7 115 12 13 33 7 33 -9z m364 -5 c29 -22 35 -49 11 -49 -8 0
-24 9 -35 20 -23 23 -39 25 -64 7 -27 -20 -9 -45 41 -59 28 -8 54 -24 66 -41
l21 -27 -21 -27 c-27 -38 -96 -44 -136 -13 -15 12 -27 28 -27 36 0 21 33 17
48 -6 15 -24 64 -27 82 -5 18 22 -1 40 -56 55 -43 12 -74 40 -74 68 0 7 11 24
25 37 30 31 82 33 119 4z m5480 11 c30 -11 53 -44 62 -88 l7 -32 -92 0 c-83 0
-91 -2 -91 -19 0 -46 84 -67 120 -31 20 20 50 27 50 13 -2 -29 -55 -63 -99
-63 -69 0 -111 44 -111 118 0 81 77 132 154 102z m727 -16 c18 -16 19 -16 19
-1 0 10 8 17 20 17 19 0 20 -7 20 -110 0 -103 -1 -110 -20 -110 -13 0 -20 7
-20 20 l0 21 -22 -21 c-27 -25 -94 -27 -124 -2 -67 54 -55 171 20 203 29 12
85 3 107 -17z m-931 -94 c0 -103 -1 -110 -20 -110 -19 0 -20 7 -20 110 0 103
1 110 20 110 19 0 20 -7 20 -110z m360 18 l24 -93 29 93 c23 73 32 92 47 92
15 0 25 -18 48 -92 l28 -93 24 93 c19 72 28 92 42 92 10 0 18 -1 18 -2 0 -2
-15 -50 -33 -108 -27 -85 -37 -106 -54 -108 -17 -3 -23 8 -43 78 -13 44 -26
83 -30 85 -4 2 -18 -34 -31 -81 -20 -72 -27 -84 -43 -82 -14 2 -26 23 -46 83
-42 125 -43 135 -22 135 14 0 23 -19 42 -92z m-7695 -1192 c79 -36 132 -80
175 -148 163 -251 19 -577 -278 -629 -173 -31 -355 68 -433 235 -104 223 21
495 260 563 74 21 207 11 276 -21z m1459 -15 c3 -4 -1 -16 -8 -27 -12 -15 -16
-16 -29 -5 -9 7 -13 19 -10 27 6 15 39 19 47 5z m96 -146 c0 -148 -1 -155 -20
-155 -19 0 -20 7 -20 148 0 82 3 152 7 155 3 4 12 7 20 7 10 0 13 -32 13 -155z
m325 120 c17 -16 25 -35 25 -58 0 -40 -45 -115 -89 -146 -17 -12 -31 -25 -31
-29 0 -4 29 -7 65 -6 57 1 65 -2 65 -18 0 -16 -10 -18 -100 -18 -77 0 -100 3
-100 14 0 7 27 37 60 65 66 57 90 95 90 139 0 35 -16 52 -49 52 -27 0 -61 -26
-61 -47 0 -7 -9 -13 -21 -13 -16 0 -19 4 -14 23 4 12 17 32 28 45 30 32 99 31
132 -3z m251 1 c24 -20 28 -32 32 -89 6 -87 -4 -134 -33 -163 -26 -26 -81 -32
-116 -14 -69 37 -70 239 -2 279 33 19 90 13 119 -13z m249 -1 c17 -16 25 -35
25 -58 0 -40 -45 -115 -89 -146 -17 -12 -31 -25 -31 -29 0 -4 29 -6 65 -6 57
1 65 -1 65 -17 0 -17 -9 -19 -100 -19 -118 0 -125 8 -53 67 88 72 127 155 91
191 -27 27 -98 2 -98 -35 0 -7 -9 -13 -21 -13 -16 0 -19 4 -14 23 4 12 17 32
28 45 30 32 99 31 132 -3z m252 1 c26 -23 28 -30 31 -113 3 -74 0 -93 -17
-120 -37 -58 -129 -56 -163 4 -20 33 -27 123 -14 180 16 70 107 97 163 49z
m-1746 -126 c27 -74 49 -138 49 -142 0 -22 -37 -5 -47 21 -12 32 -31 38 -100
33 -37 -4 -43 -7 -48 -33 -5 -22 -12 -29 -29 -29 -23 0 -23 1 19 118 67 183
63 174 86 170 17 -2 30 -28 70 -138z m139 53 c0 -11 6 -10 26 6 41 33 89 28
130 -13 28 -28 34 -42 34 -75 0 -48 -21 -96 -49 -111 -29 -15 -93 -12 -119 6
l-22 15 0 -70 c0 -64 -2 -71 -20 -71 -19 0 -20 7 -20 163 0 90 3 166 6 170 10
10 34 -4 34 -20z m280 11 c0 -14 2 -14 22 0 30 22 48 20 48 -4 0 -12 -7 -20
-17 -20 -39 0 -53 -29 -53 -112 0 -71 -2 -78 -20 -78 -19 0 -20 7 -20 108 0
60 3 112 7 115 12 13 33 7 33 -9z m150 -99 c0 -108 -1 -115 -20 -115 -19 0
-20 7 -20 108 0 110 3 122 27 122 10 0 13 -26 13 -115z m5945 -55 c29 -28 34
-83 9 -118 -14 -21 -14 -24 5 -48 32 -41 28 -94 -10 -130 -27 -25 -38 -29 -90
-29 -56 0 -63 3 -90 33 -37 41 -39 92 -6 126 23 23 23 24 5 46 -35 43 -16 119
36 141 37 16 114 4 141 -21z m276 14 c42 -21 59 -68 59 -159 0 -91 -17 -138
-59 -159 -66 -35 -138 -9 -167 60 -19 45 -18 154 2 204 26 65 98 89 165 54z
m398 -158 c22 -23 23 -26 7 -32 -9 -4 -24 0 -34 9 -17 16 -34 20 -64 18 -49
-3 -68 -96 -26 -125 31 -22 64 -20 89 5 11 11 19 22 17 24 -3 3 -44 11 -70 14
-5 1 -8 6 -8 11 0 6 27 10 60 10 67 0 73 -9 43 -60 -54 -92 -193 -50 -193 58
0 33 32 79 64 93 33 14 88 2 115 -25z m201 5 c33 -24 47 -79 30 -121 -17 -40
-56 -60 -120 -60 l-50 0 0 98 c0 54 3 102 8 106 12 13 105 -3 132 -23z m236
-2 c13 -13 24 -26 24 -31 0 -15 -30 -8 -59 13 -31 22 -59 20 -86 -7 -20 -20
-19 -83 2 -106 20 -22 70 -24 94 -2 10 9 26 14 36 12 16 -3 15 -7 -9 -31 -45
-45 -134 -32 -164 24 -29 56 -5 126 50 150 32 13 86 3 112 -22z m-7519 -222
c-2 -23 -3 -1 -3 48 0 50 1 68 3 42 2 -26 2 -67 0 -90z m-264 113 c-35 -14
-29 -46 11 -60 19 -6 40 -17 46 -25 17 -20 3 -54 -25 -61 -25 -6 -65 10 -65
27 0 6 7 3 16 -5 18 -19 45 -21 62 -4 22 22 12 39 -33 58 -30 13 -45 25 -45
38 0 22 19 42 40 41 9 0 6 -4 -7 -9z m57 -5 c7 -8 9 -15 6 -15 -4 0 -14 7 -22
15 -9 8 -11 15 -6 15 5 0 15 -7 22 -15z m657 -107 c-2 -24 -4 -5 -4 42 0 47 2
66 4 43 2 -24 2 -62 0 -85z m113 54 l45 -66 6 69 5 70 2 -83 c1 -46 -2 -81 -7
-78 -5 3 -26 33 -47 66 -22 33 -42 60 -46 60 -4 0 -9 -30 -11 -67 l-3 -68 -2
83 c-1 45 1 82 6 82 4 0 27 -31 52 -68z m188 56 c18 -18 14 -56 -8 -68 -19
-10 -19 -11 1 -45 27 -46 17 -46 -11 0 -30 48 -58 47 -63 -2 -2 -21 -4 -1 -5
45 l-2 82 38 0 c21 0 43 -5 50 -12z m-831 -33 c20 -14 22 -13 26 2 3 10 5 -13
5 -52 0 -38 -2 -62 -5 -52 -4 14 -8 16 -19 6 -12 -10 -12 -8 0 15 17 34 10 65
-19 78 -35 16 -65 -5 -65 -45 0 -37 15 -57 44 -57 10 0 17 -3 13 -6 -14 -14
-55 7 -67 35 -13 33 -3 62 28 80 24 14 34 13 59 -4z m211 -1 c12 -8 22 -24 22
-35 0 -16 -7 -19 -50 -19 -51 0 -64 -12 -38 -38 17 -17 48 -15 72 6 21 17 21
17 2 -5 -11 -13 -29 -23 -42 -23 -23 0 -64 42 -64 65 0 20 40 65 59 65 9 0 27
-7 39 -16z m195 -31 c-13 -2 -35 -2 -50 0 -16 2 -5 4 22 4 28 0 40 -2 28 -4z
m-1351 -1112 c63 -19 155 -89 198 -149 178 -248 36 -590 -268 -643 -175 -31
-354 68 -435 239 -28 60 -32 77 -32 157 0 61 6 107 18 142 40 116 142 214 263
254 65 21 186 21 256 0z m1873 -56 c48 -47 25 -123 -58 -197 l-42 -38 68 0
c60 0 67 -2 67 -20 0 -19 -7 -20 -100 -20 -77 0 -100 3 -100 14 0 7 27 37 60
65 66 57 90 95 90 139 0 35 -16 52 -49 52 -27 0 -61 -26 -61 -47 0 -7 -9 -13
-21 -13 -16 0 -19 4 -14 23 4 12 17 32 28 45 30 32 99 31 132 -3z m241 1 c24
-20 28 -32 32 -89 6 -87 -4 -134 -33 -163 -26 -26 -81 -32 -116 -14 -63 35
-73 215 -14 268 36 30 95 30 131 -2z m249 -1 c48 -47 25 -123 -58 -197 l-42
-38 68 0 c60 0 67 -2 67 -20 0 -19 -7 -20 -100 -20 -118 0 -125 8 -53 67 88
72 127 155 91 191 -27 27 -98 2 -98 -35 0 -7 -9 -13 -21 -13 -16 0 -19 4 -14
23 4 12 17 32 28 45 30 32 99 31 132 -3z m252 1 c25 -22 28 -31 31 -105 4 -89
-7 -132 -42 -156 -24 -17 -79 -20 -107 -5 -64 35 -74 215 -13 268 35 31 94 30
131 -2z m-1784 -103 c27 -62 53 -111 56 -108 4 2 26 48 51 102 40 91 62 123
82 123 4 0 8 -65 8 -145 0 -137 -1 -145 -20 -145 -18 0 -20 8 -22 95 l-3 96
-40 -93 c-24 -55 -47 -94 -56 -96 -12 -2 -28 24 -60 98 l-44 101 -3 -100 c-2
-93 -4 -101 -22 -101 -19 0 -20 7 -20 138 0 76 3 142 7 146 19 19 41 -9 86
-111z m421 36 l26 -20 0 21 c0 15 5 20 18 18 15 -3 17 -18 20 -116 3 -107 2
-112 -18 -112 -13 0 -20 7 -20 20 l0 20 -20 -20 c-22 -22 -88 -27 -121 -10
-28 15 -49 63 -49 111 0 33 6 47 34 75 41 41 89 46 130 13z m133 9 c6 -7 23
-48 38 -91 15 -42 30 -75 33 -72 3 3 20 42 37 88 20 51 38 83 49 85 9 2 16 -1
16 -7 0 -6 -29 -82 -64 -168 -51 -125 -69 -159 -85 -161 -20 -3 -20 -3 1 56
l22 59 -42 102 c-23 56 -42 106 -42 111 0 14 26 12 37 -2z m6024 -144 c40 -20
59 -68 59 -150 0 -91 -17 -142 -54 -165 -65 -40 -143 -14 -172 57 -19 45 -18
154 2 204 26 65 98 89 165 54z m300 0 c42 -21 59 -68 59 -160 0 -125 -45 -183
-132 -171 -74 10 -108 65 -108 171 0 79 23 141 59 161 35 19 85 19 122 -1z
m-561 -165 l0 -170 -27 3 -28 3 0 143 c0 141 0 142 -22 142 -18 0 -23 6 -23
25 0 23 3 25 50 25 l50 0 0 -171z m956 10 c13 -13 24 -26 24 -31 0 -12 -38
-10 -45 3 -13 20 -55 30 -78 18 -30 -16 -37 -28 -37 -71 0 -63 67 -91 112 -46
22 22 22 23 3 26 -85 13 -88 32 -5 32 66 0 69 -4 45 -55 -47 -98 -195 -58
-195 53 0 33 32 79 64 93 32 13 86 3 112 -22z m194 11 c23 -12 50 -60 50 -89
0 -63 -49 -101 -130 -101 l-50 0 0 98 c0 54 3 102 7 106 9 9 99 -1 123 -14z
m247 -12 c13 -12 23 -25 23 -28 0 -13 -34 -5 -62 13 -47 32 -98 0 -98 -60 0
-20 7 -45 17 -55 20 -22 70 -24 94 -2 10 9 26 14 36 12 16 -3 15 -7 -9 -31
-45 -45 -134 -32 -164 24 -21 42 -17 84 11 118 40 46 108 50 152 9z m-6419
-157 c20 19 30 25 22 14 -8 -11 -21 -24 -27 -28 -20 -12 -16 -28 14 -61 25
-28 25 -28 -9 3 l-37 34 -4 -34 c-2 -19 -4 7 -4 56 1 51 2 67 4 36 l4 -54 37
34z m-1314 53 c18 -7 21 -45 6 -60 -8 -8 -6 -15 5 -24 34 -28 0 -70 -57 -70
l-38 0 0 80 0 80 34 0 c19 0 41 -3 50 -6z m522 -16 c19 -23 19 -23 -2 -5 -21
17 -70 23 -91 9 -23 -15 -32 -56 -18 -88 20 -48 70 -59 105 -24 31 31 25 48
-17 53 l-38 4 43 1 c36 2 42 -1 42 -18 0 -29 -44 -70 -75 -70 -30 0 -85 49
-85 75 0 22 27 72 42 78 33 13 76 6 94 -15z m164 0 c25 -27 26 -78 2 -108 -12
-15 -33 -24 -65 -27 l-47 -6 0 82 0 81 45 0 c33 0 50 -6 65 -22z m186 0 c19
-23 19 -23 -2 -5 -40 33 -112 14 -115 -31 -3 -38 3 -58 23 -74 28 -24 63 -23
88 4 11 12 20 17 20 10 0 -16 -41 -42 -66 -42 -29 0 -70 34 -78 65 -7 27 15
80 36 88 33 13 76 6 94 -15z m197 15 c-21 -4 -23 -10 -23 -79 0 -43 -4 -74
-10 -74 -6 0 -10 31 -10 74 0 69 -2 75 -22 79 -13 2 2 4 32 4 30 0 45 -2 33
-4z m-992 -130 c6 -6 20 -14 32 -16 l22 -4 -22 -2 c-36 -2 -53 25 -51 82 l2
52 3 -50 c3 -27 9 -55 14 -62z m89 40 c0 -43 -4 -63 -9 -53 -8 14 -3 120 5
120 2 0 4 -30 4 -67z m94 -36 c5 5 6 0 2 -12 -5 -11 -13 -33 -18 -48 -6 -15
-12 -26 -14 -24 -3 2 0 16 6 31 8 22 5 38 -15 86 -33 79 -31 91 3 17 16 -33
31 -55 36 -50z m30 54 c-9 -23 -18 -40 -21 -38 -2 3 4 23 13 46 9 23 18 40 21
38 2 -3 -4 -23 -13 -46z m925 23 c27 -34 26 -52 -1 -81 -28 -30 -62 -29 -87 3
-27 34 -26 50 4 79 31 32 58 32 84 -1z m249 10 c12 -8 22 -24 22 -35 0 -16 -7
-19 -50 -19 -51 0 -64 -12 -38 -38 17 -17 48 -15 72 6 21 17 21 17 2 -5 -11
-13 -29 -23 -42 -23 -23 0 -64 42 -64 65 0 20 40 65 59 65 9 0 27 -7 39 -16z
m102 9 c45 17 70 -11 69 -77 l-2 -51 -6 50 c-7 59 -16 75 -39 75 -33 0 -46
-19 -53 -72 l-6 -53 -1 70 c0 39 2 65 4 59 4 -9 13 -9 34 -1z m178 -5 c7 -7
12 -16 12 -21 0 -5 -7 -1 -16 8 -20 20 -48 16 -52 -8 -2 -10 5 -21 20 -27 17
-7 18 -9 4 -7 -10 1 -24 9 -29 19 -21 33 32 65 61 36z m15 -93 c-10 -28 -83
-30 -83 -2 0 8 3 8 12 -1 27 -27 80 0 55 28 -10 12 -9 12 5 1 9 -7 14 -19 11
-26z m-2581 -1055 c294 -91 385 -469 163 -679 -211 -200 -533 -138 -658 127
-28 60 -32 77 -32 157 0 108 20 173 75 246 107 143 284 201 452 149z m2013
-55 c48 -47 25 -123 -58 -197 l-42 -38 68 0 c60 0 67 -2 67 -20 0 -19 -7 -20
-100 -20 -118 0 -125 8 -53 67 88 72 127 155 91 191 -27 27 -98 2 -98 -35 0
-7 -9 -13 -21 -13 -16 0 -19 4 -14 23 19 65 113 90 160 42z m252 1 c26 -23 28
-30 31 -113 3 -74 0 -93 -17 -120 -36 -57 -129 -56 -162 2 -37 64 -28 194 16
233 36 31 95 30 132 -2z m248 -1 c17 -16 25 -35 25 -58 0 -41 -45 -115 -89
-147 -18 -12 -30 -25 -27 -28 4 -3 33 -4 66 -3 55 2 60 1 60 -18 0 -20 -6 -21
-100 -21 -118 0 -125 8 -53 67 88 72 127 155 91 191 -27 27 -98 2 -98 -35 0
-7 -9 -13 -21 -13 -16 0 -19 4 -14 23 4 12 17 32 28 45 30 32 99 31 132 -3z
m252 1 c26 -23 28 -30 31 -113 2 -74 0 -93 -17 -120 -36 -58 -128 -57 -162 2
-37 65 -28 193 16 233 36 31 95 30 132 -2z m-1869 -110 c-2 -105 -6 -127 -22
-145 -40 -44 -136 -16 -136 39 0 28 24 25 44 -5 20 -30 51 -33 66 -6 5 11 10
69 10 130 0 106 1 111 21 111 20 0 21 -4 17 -124z m110 -21 c3 -89 17 -115 62
-115 45 0 59 26 62 115 3 67 6 80 21 83 15 3 17 -7 17 -112 0 -110 -1 -116
-21 -116 -13 0 -18 4 -13 12 5 8 2 9 -12 3 -10 -5 -38 -10 -61 -13 -36 -3 -46
0 -68 23 -23 26 -25 35 -25 117 0 80 2 89 18 86 14 -3 17 -16 20 -83z m262 69
c0 -14 2 -14 22 0 28 20 77 20 105 1 28 -20 41 -65 41 -147 0 -59 -2 -68 -18
-68 -15 0 -18 11 -22 81 -3 71 -6 83 -27 101 -28 22 -67 17 -88 -10 -7 -10
-12 -47 -13 -94 0 -71 -2 -78 -20 -78 -19 0 -20 7 -20 108 0 60 3 112 7 115
12 13 33 7 33 -9z m400 -11 c20 -18 33 -41 37 -65 l6 -38 -92 0 c-83 0 -91 -2
-91 -19 0 -46 86 -68 117 -31 18 21 53 27 53 10 0 -6 -11 -22 -25 -35 -19 -19
-35 -25 -70 -25 -26 0 -55 5 -66 10 -27 15 -49 63 -49 108 0 95 111 147 180
85z m5781 -152 c23 -24 29 -38 29 -73 -1 -54 -14 -78 -81 -145 l-53 -53 72 0
c70 0 72 -1 72 -25 l0 -26 -104 2 c-57 1 -108 4 -113 8 -19 13 -6 33 69 104
59 56 78 81 83 109 10 51 -7 78 -48 78 -37 0 -57 -15 -57 -42 0 -13 -8 -18
-30 -18 -35 0 -35 0 -16 44 19 45 52 66 104 66 35 0 49 -6 73 -29z m307 2 c3
-22 1 -23 -77 -23 l-81 0 0 -44 0 -45 34 14 c77 33 146 -18 146 -107 0 -44 -4
-54 -34 -84 -28 -28 -42 -34 -75 -34 -64 0 -121 37 -121 79 0 16 50 13 56 -3
13 -34 95 -36 116 -3 15 23 8 77 -12 97 -28 28 -66 25 -95 -6 -13 -14 -32 -24
-42 -22 -15 3 -18 16 -21 92 -2 49 0 96 2 103 4 11 28 13 103 11 93 -3 98 -4
101 -25z m358 -144 c34 -32 9 -52 -27 -22 -35 29 -96 15 -106 -25 -10 -39 -5
-65 19 -84 27 -24 63 -23 89 3 25 25 20 32 -20 31 -17 0 -32 5 -35 14 -4 11 7
14 54 14 54 0 60 -2 60 -21 0 -33 -62 -89 -99 -89 -66 0 -111 44 -111 108 0
33 32 79 64 93 31 13 86 3 112 -22z m203 3 c35 -26 46 -66 32 -113 -15 -48
-51 -69 -121 -69 l-50 0 0 98 c0 54 3 102 7 105 12 12 108 -3 132 -21z m237
-3 c13 -13 24 -26 24 -31 0 -14 -40 -9 -46 6 -12 32 -84 26 -106 -8 -14 -20
-8 -79 9 -98 20 -22 70 -24 94 -2 10 9 26 14 36 12 16 -3 14 -7 -11 -31 -67
-63 -176 -13 -176 81 0 33 32 79 64 93 32 13 86 3 112 -22z m-7519 -212 c-2
-23 -3 -1 -3 48 0 50 1 68 3 42 2 -26 2 -67 0 -90z m-264 113 c-35 -14 -29
-46 11 -60 19 -6 40 -17 46 -25 17 -20 3 -54 -25 -61 -25 -6 -65 10 -65 27 0
6 7 3 16 -5 18 -19 45 -21 62 -4 22 22 12 39 -33 58 -30 13 -45 25 -45 38 0
22 19 42 40 41 9 0 6 -4 -7 -9z m57 -5 c7 -8 8 -15 2 -15 -5 0 -15 7 -22 15
-7 8 -8 15 -2 15 5 0 15 -7 22 -15z m657 -107 c-2 -24 -4 -5 -4 42 0 47 2 66
4 43 2 -24 2 -62 0 -85z m114 55 l44 -68 6 70 5 70 2 -83 c1 -46 -2 -81 -7
-78 -5 3 -26 33 -47 66 -22 33 -42 60 -46 60 -4 0 -9 -30 -11 -67 l-3 -68 -2
83 c-1 45 2 82 6 82 5 0 28 -30 53 -67z m187 55 c18 -18 14 -56 -8 -68 -19
-10 -19 -11 1 -45 27 -46 17 -46 -11 0 -30 48 -58 47 -63 -2 -2 -21 -4 -1 -5
45 l-2 82 38 0 c21 0 43 -5 50 -12z m-875 -33 c-28 -12 -33 -19 -33 -48 0 -36
12 -52 45 -60 19 -4 19 -5 -2 -6 -23 -1 -63 41 -63 66 0 20 46 63 67 63 11 -1
5 -6 -14 -15z m76 -52 c-1 -38 -3 -60 -6 -50 -4 15 -7 16 -21 5 -15 -11 -15
-11 -6 2 20 28 22 47 8 75 -13 24 -12 26 1 15 12 -10 15 -10 15 4 0 9 2 16 5
16 3 0 4 -30 4 -67z m179 51 c12 -8 22 -24 22 -35 0 -16 -7 -19 -50 -19 -51 0
-64 -12 -38 -38 17 -17 48 -15 72 6 21 17 21 17 2 -5 -11 -13 -29 -23 -42 -23
-23 0 -64 42 -64 65 0 20 40 65 59 65 9 0 27 -7 39 -16z m195 -31 c-13 -2 -35
-2 -50 0 -16 2 -5 4 22 4 28 0 40 -2 28 -4z m936 -837 c77 -77 131 -138 127
-145 -4 -6 -18 -11 -32 -11 -24 0 -24 0 -24 -109 0 -133 -5 -141 -90 -141 -81
0 -90 11 -90 111 l0 79 -30 0 -30 0 0 -77 c0 -100 -11 -113 -96 -113 -87 0
-94 12 -94 151 0 102 -1 107 -20 102 -13 -3 -22 1 -26 12 -5 13 26 50 122 146
71 71 133 129 139 129 6 0 70 -60 144 -134z m-2269 -285 c110 -42 205 -144
240 -258 73 -238 -75 -478 -324 -524 -226 -42 -453 135 -473 368 -16 196 108
375 297 428 72 20 187 14 260 -14z m7732 -302 c22 -43 24 -174 4 -224 -26 -62
-117 -85 -171 -43 -57 44 -75 152 -31 181 l23 16 6 -67 c4 -52 10 -70 27 -84
32 -26 65 -22 89 8 27 34 29 139 5 190 -13 28 -14 37 -4 49 18 22 32 15 52
-26z m357 -114 c35 -34 19 -43 -31 -18 -32 17 -47 19 -67 12 -33 -13 -41 -26
-41 -71 0 -62 67 -91 111 -47 25 25 24 26 -20 31 -19 2 -37 10 -39 16 -2 8 15
12 57 12 67 0 70 -4 46 -55 -47 -98 -195 -58 -195 53 0 33 32 79 64 93 32 13
88 0 115 -26z m200 7 c35 -26 46 -66 32 -113 -15 -48 -51 -69 -121 -69 l-50 0
0 99 c0 70 4 101 13 105 22 9 102 -4 126 -22z m240 -6 c35 -36 18 -44 -33 -17
-37 21 -46 22 -67 11 -13 -7 -27 -18 -31 -24 -14 -20 -8 -79 9 -98 20 -22 70
-24 94 -2 10 9 26 14 36 12 16 -3 15 -7 -9 -31 -63 -63 -178 -13 -178 78 0 89
115 135 179 71z m-1079 -46 c0 -53 -26 -99 -64 -115 -73 -31 -134 -7 -162 61
-19 44 -19 44 16 44 23 0 30 -5 30 -19 0 -11 10 -27 22 -35 46 -32 89 -12 104
49 9 41 12 45 35 45 15 0 19 -7 19 -30z m-396 -45 l-39 -34 73 -1 c71 0 72 -1
72 -26 l0 -25 -110 2 c-134 3 -144 13 -76 76 36 35 52 43 82 43 l37 0 -39 -35z
m-6311 -5 c-35 -14 -29 -46 11 -60 19 -6 40 -17 46 -25 17 -20 3 -54 -25 -61
-25 -6 -65 10 -65 27 0 6 7 3 16 -5 19 -20 48 -21 63 -2 18 21 4 42 -40 59
-26 10 -39 22 -39 34 0 23 19 43 40 42 9 0 6 -4 -7 -9z m57 -5 c7 -8 9 -15 6
-15 -4 0 -14 7 -22 15 -9 8 -11 15 -6 15 5 0 15 -7 22 -15z m133 -62 c15 -42
25 -78 23 -80 -2 -3 -7 5 -11 16 -5 17 -15 21 -51 21 -32 0 -44 -4 -44 -14 0
-8 -5 -18 -10 -21 -6 -3 -1 20 11 52 12 32 26 68 30 81 5 12 12 22 16 22 5 0
21 -34 36 -77z m110 -76 c31 -4 31 -4 -5 -5 l-38 -2 2 83 2 82 3 -77 4 -77 32
-4z m95 146 c-34 -4 -38 -7 -38 -34 0 -27 3 -29 38 -31 l37 -1 -37 -4 c-36 -4
-38 -6 -38 -38 0 -32 2 -34 38 -38 l37 -4 -42 -1 -43 -2 0 80 0 80 43 -2 42
-1 -37 -4z m380 0 c-34 -4 -38 -7 -38 -34 0 -27 3 -29 38 -30 l37 -2 -35 -6
c-30 -5 -35 -10 -38 -38 -3 -30 -1 -32 35 -36 l38 -4 -42 -1 -43 -2 0 80 0 80
43 -2 42 -1 -37 -4z m155 -70 c15 -42 25 -78 23 -80 -2 -3 -7 5 -11 16 -5 17
-15 21 -51 21 -32 0 -44 -4 -44 -14 0 -8 -5 -18 -10 -21 -6 -3 -1 20 11 52 12
32 26 68 30 81 5 12 12 22 17 22 5 0 20 -34 35 -77z m155 65 c18 -18 14 -56
-8 -68 -19 -10 -19 -11 1 -45 27 -46 17 -46 -11 0 -30 48 -58 47 -63 -2 -2
-21 -4 -1 -5 45 l-2 82 38 0 c21 0 43 -5 50 -12z m112 -56 l45 -67 6 70 5 70
2 -83 c1 -46 -2 -81 -7 -78 -5 3 -26 33 -47 66 -22 33 -42 60 -46 60 -4 0 -9
-30 -11 -67 l-3 -68 -2 83 c-1 45 1 82 6 82 4 0 27 -31 52 -68z m107 -54 c-2
-24 -4 -5 -4 42 0 47 2 66 4 43 2 -24 2 -62 0 -85z m103 55 l45 -68 6 70 5 70
2 -83 c1 -46 -2 -81 -7 -78 -5 3 -26 33 -47 66 -22 33 -42 60 -46 60 -4 0 -9
-30 -11 -67 l-3 -68 -2 83 c-1 45 2 82 6 82 4 0 28 -30 52 -67z m226 45 c19
-23 19 -23 -2 -5 -40 33 -112 14 -115 -31 -4 -56 22 -92 67 -92 24 0 64 35 64
56 0 7 -16 14 -37 17 l-38 4 43 1 c36 2 42 -1 42 -18 0 -29 -44 -70 -75 -70
-30 0 -85 49 -85 75 0 22 27 72 42 78 33 13 76 6 94 -15z m97 12 c-35 -14 -29
-46 11 -60 19 -6 40 -17 46 -25 17 -20 3 -54 -25 -61 -25 -6 -65 10 -65 27 0
6 7 3 16 -5 19 -20 48 -21 63 -2 18 21 4 42 -40 59 -26 10 -39 22 -39 34 0 23
19 43 40 42 9 0 6 -4 -7 -9z m57 -5 c7 -8 9 -15 6 -15 -4 0 -14 7 -22 15 -9 8
-11 15 -6 15 5 0 15 -7 22 -15z m-1187 -62 c-13 -2 -35 -2 -50 0 -16 2 -5 4
22 4 28 0 40 -2 28 -4z"/>
<path d="M11091 21703 c-38 -19 -78 -74 -87 -120 -8 -42 27 -115 69 -145 31
-22 40 -23 321 -26 185 -2 292 0 299 7 11 11 14 272 3 290 -5 8 -92 11 -289
11 -242 0 -287 -3 -316 -17z m559 -138 l0 -115 -245 0 c-264 0 -296 5 -329 51
-21 30 -21 98 0 128 32 46 62 50 327 51 l247 0 0 -115z"/>
<path d="M11730 21640 c-11 -20 -14 -109 -4 -134 8 -20 28 -20 48 0 18 17 22
95 6 123 -14 28 -38 33 -50 11z"/>
<path d="M689 21697 c-86 -66 -10 -203 79 -141 32 22 31 92 -3 128 -26 28 -51
33 -76 13z"/>
<path d="M1103 21594 c-36 -55 -48 -81 -40 -86 20 -13 87 -9 93 5 3 8 4 47 2
87 l-3 73 -52 -79z"/>
<path d="M11220 19963 c-29 -11 -110 -107 -120 -142 -5 -20 -10 -60 -10 -90 0
-38 -5 -57 -17 -66 -26 -19 -6 -35 44 -35 37 0 50 -5 73 -30 15 -16 33 -30 40
-30 7 0 25 14 40 30 23 25 36 30 73 30 50 0 70 16 44 35 -12 9 -17 28 -17 66
0 85 -15 122 -75 183 -29 31 -55 56 -57 55 -2 0 -10 -3 -18 -6z m30 -52 c0
-11 9 -22 20 -26 43 -14 60 -52 60 -136 l0 -79 -100 0 -100 0 0 79 c0 84 17
122 60 136 11 4 20 15 20 26 0 12 7 19 20 19 13 0 20 -7 20 -19z m0 -291 c0
-5 -9 -10 -20 -10 -11 0 -20 5 -20 10 0 6 9 10 20 10 11 0 20 -4 20 -10z"/>
<path d="M1969 19379 c-388 -38 -722 -330 -831 -727 -31 -111 -31 -353 0 -465
78 -284 271 -514 536 -637 138 -65 228 -84 401 -84 124 0 165 4 235 23 286 76
516 268 641 535 65 139 83 228 83 401 0 125 -4 164 -23 235 -55 205 -171 386
-329 511 -206 165 -444 234 -713 208z m132 -265 c-83 -74 -191 -267 -176 -314
6 -20 32 -33 46 -24 6 3 28 44 50 91 43 90 93 149 149 175 77 35 80 30 22 -29
-96 -99 -159 -248 -119 -282 29 -23 51 -8 83 60 33 68 69 100 132 119 29 8 28
7 -13 -35 -44 -44 -85 -132 -85 -184 0 -22 7 -31 30 -41 31 -13 133 -9 175 6
15 5 17 4 9 -5 -34 -37 -234 -33 -345 8 -148 54 -192 49 -240 -27 l-29 -46 0
48 c0 26 7 61 16 79 9 17 23 63 31 101 34 162 143 297 273 337 44 13 43 10 -9
-37z m258 -259 c-25 -13 -69 -49 -98 -81 l-52 -57 20 54 c25 64 33 73 91 93
70 24 92 19 39 -9z m110 -55 c-32 -17 -68 -52 -121 -118 -11 -14 -29 -22 -48
-22 -36 0 -37 4 -5 46 47 62 134 113 190 113 14 0 10 -5 -16 -19z m81 -85 c0
-2 -14 -12 -30 -20 -28 -15 -100 -111 -100 -134 0 -18 72 -34 134 -28 47 5 55
4 36 -4 -15 -7 -84 -9 -172 -7 l-147 4 -17 -38 c-10 -22 -22 -41 -26 -45 -5
-3 0 13 11 36 31 60 35 57 -69 63 -52 3 -76 -19 -63 -58 12 -37 29 -41 37 -10
3 14 20 32 36 41 42 22 47 19 17 -13 -40 -42 -45 -81 -13 -111 14 -14 26 -35
26 -47 0 -15 20 -40 60 -75 33 -29 60 -60 60 -70 0 -9 -14 -29 -32 -44 -29
-24 -36 -26 -89 -20 -68 8 -87 1 -64 -25 8 -9 21 -41 27 -71 9 -45 8 -64 -5
-109 -14 -48 -124 -239 -137 -240 -3 0 -13 28 -23 63 -20 68 -65 159 -83 164
-9 3 -8 -7 2 -34 7 -21 13 -58 13 -83 0 -42 -1 -44 -14 -26 -29 38 -103 192
-119 245 -9 30 -16 91 -16 136 0 94 23 151 90 223 33 35 39 47 29 58 -15 18
-30 18 -23 0 4 -10 -6 -18 -32 -25 -58 -16 -114 17 -159 94 -14 25 -12 24 15
-8 40 -47 78 -67 125 -67 44 0 44 12 3 40 -31 20 -27 21 20 3 11 -4 7 5 -12
25 -17 18 -39 32 -50 33 -12 0 -37 7 -56 15 -29 12 -30 13 -7 9 15 -3 38 -8
52 -11 21 -5 25 -3 25 15 0 27 23 73 46 92 10 8 15 9 11 2 -10 -16 22 -93 38
-93 19 0 55 48 55 73 0 11 3 18 6 14 3 -3 0 -37 -7 -76 -11 -65 -11 -73 6 -91
22 -25 70 -28 61 -4 -3 9 8 47 26 84 31 66 34 68 63 63 16 -3 38 -10 48 -15
10 -5 47 -6 83 -3 60 7 64 6 64 -13 0 -11 7 -22 15 -26 17 -6 45 2 45 13 0 16
104 114 134 127 33 14 46 17 46 9z"/>
<path d="M1950 18464 c0 -6 7 -28 16 -49 9 -22 13 -49 9 -66 -10 -44 -24 -44
-18 0 7 48 -4 55 -44 31 -73 -44 -106 -186 -69 -296 15 -46 82 -141 93 -131 2
3 -5 28 -17 56 -22 56 -27 165 -9 191 8 11 9 6 5 -23 -7 -57 11 -150 46 -228
33 -73 48 -87 48 -41 0 15 16 52 35 82 38 59 43 90 20 114 -8 8 -18 30 -20 48
-5 30 -4 31 6 11 11 -20 13 -21 35 -6 20 13 33 13 91 3 68 -12 110 -11 106 2
-1 4 2 21 7 37 7 26 3 33 -67 96 -73 66 -96 77 -73 35 17 -31 6 -35 -14 -6 -9
14 -30 33 -46 41 -17 9 -28 19 -26 24 3 4 -1 17 -9 27 -14 18 -16 18 -25 2 -9
-15 -14 -13 -45 20 -19 20 -35 32 -35 26z m138 -137 c2 -9 -1 -17 -7 -17 -6 0
-11 4 -11 9 0 5 -11 12 -25 15 -14 4 -23 11 -20 15 8 15 60 -4 63 -22z m32
-47 c6 -11 9 -20 7 -20 -2 0 -12 9 -22 20 -10 11 -13 20 -7 20 6 0 16 -9 22
-20z m-63 -212 c-3 -7 -5 -2 -5 12 0 14 2 19 5 13 2 -7 2 -19 0 -25z"/>
<path d="M2360 16635 l0 -45 64 0 c65 0 96 14 96 45 0 31 -31 45 -96 45 l-64
0 0 -45z"/>
<path d="M2360 16510 l0 -50 69 0 c74 0 101 14 101 50 0 32 -39 50 -107 50
l-63 0 0 -50z"/>
<path d="M1441 16584 c-12 -15 -21 -37 -21 -49 0 -38 37 -75 75 -75 38 0 75
37 75 75 0 38 -37 75 -75 75 -24 0 -39 -7 -54 -26z"/>
<path d="M1866 16517 c-43 -31 18 -81 67 -56 27 14 37 28 37 52 0 13 -9 17
-43 17 -24 0 -51 -6 -61 -13z"/>
<path d="M2656 16517 c-43 -31 18 -81 67 -56 27 14 37 28 37 52 0 13 -9 17
-43 17 -24 0 -51 -6 -61 -13z"/>
<path d="M3026 16517 c-43 -31 18 -81 67 -56 27 14 37 28 37 52 0 13 -9 17
-43 17 -24 0 -51 -6 -61 -13z"/>
<path d="M3790 16590 c-33 -33 -24 -40 50 -40 39 0 70 3 70 8 0 4 -7 18 -16
30 -20 29 -76 30 -104 2z"/>
<path d="M1340 15958 c-45 -49 -11 -113 62 -113 70 0 101 63 53 110 -32 33
-86 34 -115 3z"/>
<path d="M1343 15750 c-43 -17 -56 -72 -25 -110 38 -47 160 -33 177 21 22 70
-68 123 -152 89z"/>
<path d="M1845 15968 c-47 -25 -59 -78 -27 -118 27 -33 99 -39 135 -10 38 30
38 90 1 119 -29 23 -77 27 -109 9z"/>
<path d="M5451 15690 l-2 -100 55 0 c47 0 61 4 88 29 27 24 33 36 33 71 0 35
-6 47 -33 71 -27 24 -41 29 -86 29 l-54 0 -1 -100z"/>
<path d="M1195 14900 c-23 -25 -13 -63 20 -78 14 -7 28 -12 30 -12 3 0 5 25 5
55 0 47 -3 55 -18 55 -11 0 -27 -9 -37 -20z"/>
<path d="M1270 14725 c0 -48 3 -55 19 -55 53 0 69 70 21 95 -16 8 -31 15 -35
15 -3 0 -5 -25 -5 -55z"/>
<path d="M3096 14897 c-61 -61 -38 -208 35 -227 67 -17 119 38 119 125 0 75
-31 119 -88 123 -33 3 -47 -2 -66 -21z"/>
<path d="M4588 14855 c-8 -19 -8 -31 0 -50 24 -53 74 -8 53 48 -13 34 -38 35
-53 2z"/>
<path d="M4818 14855 c-8 -19 -8 -31 0 -50 24 -53 74 -8 53 48 -13 34 -38 35
-53 2z"/>
<path d="M4988 14855 c-8 -19 -8 -31 0 -50 24 -53 74 -8 53 48 -13 34 -38 35
-53 2z"/>
<path d="M3030 10735 l0 -55 53 0 c61 0 97 20 97 55 0 35 -36 55 -97 55 l-53
0 0 -55z"/>
<path d="M3030 10610 l0 -50 54 0 c79 0 106 13 106 49 0 39 -23 51 -99 51
l-61 0 0 -50z"/>
<path d="M6297 10660 c-46 -36 -36 -50 38 -50 68 0 78 9 53 43 -22 27 -61 31
-91 7z"/>
<path d="M8650 10571 c-12 -24 10 -51 43 -51 31 0 67 27 67 51 0 16 -7 19 -50
19 -38 0 -52 -4 -60 -19z"/>
<path d="M9497 10660 c-46 -36 -36 -50 38 -50 68 0 78 9 53 43 -22 27 -61 31
-91 7z"/>
<path d="M2163 7550 c-50 -20 -60 -105 -17 -139 35 -28 69 -26 99 4 42 41 27
116 -28 135 -16 5 -30 10 -31 9 -1 0 -11 -4 -23 -9z"/>
<path d="M2923 7550 c-47 -19 -59 -101 -20 -138 43 -41 109 -20 122 39 10 43
-11 86 -47 98 -17 6 -31 11 -32 10 -1 0 -11 -4 -23 -9z"/>
<path d="M3703 7550 c-28 -11 -43 -40 -43 -84 0 -81 99 -106 136 -34 35 67
-26 144 -93 118z"/>
<path d="M9682 7537 c-37 -39 -29 -47 48 -47 79 0 90 13 44 49 -35 27 -65 27
-92 -2z"/>
<path d="M10395 7537 c-54 -46 -22 -147 47 -147 81 0 106 125 31 159 -35 16
-49 14 -78 -12z"/>
<path d="M1987 6280 c-110 -28 -218 -123 -257 -228 -28 -71 -30 -167 -6 -242
67 -211 307 -311 508 -212 181 89 256 309 166 486 -33 65 -112 141 -178 170
-67 30 -170 42 -233 26z m201 -337 c-2 -79 -6 -98 -18 -98 -11 0 -16 14 -18
58 -2 31 -6 57 -10 57 -4 0 -43 -36 -87 -80 -44 -44 -83 -80 -88 -80 -4 0 -10
7 -14 16 -4 11 20 42 78 100 l84 84 -57 0 c-55 0 -76 10 -63 30 3 6 49 10 101
10 l95 0 -3 -97z"/>
<path d="M4266 6237 c-35 -26 -44 -160 -12 -201 19 -24 66 -25 90 0 12 11 16
36 16 95 0 66 -3 82 -20 99 -23 23 -49 26 -74 7z"/>
<path d="M4761 6233 c-28 -23 -37 -131 -16 -180 12 -28 19 -33 47 -33 49 0 61
13 68 72 13 127 -34 194 -99 141z"/>
<path d="M3023 6147 c-12 -34 -18 -64 -13 -67 5 -3 27 -4 49 -2 l40 4 -21 57
c-11 31 -23 59 -27 63 -3 4 -16 -21 -28 -55z"/>
<path d="M3309 6169 c-29 -11 -49 -46 -49 -85 0 -32 42 -74 75 -74 38 0 75 42
75 83 0 60 -48 95 -101 76z"/>
<path d="M9518 6016 c-28 -14 -35 -57 -13 -80 36 -35 105 -10 105 38 0 40 -50
63 -92 42z"/>
<path d="M9496 5854 c-20 -20 -20 -43 0 -72 20 -28 83 -31 107 -4 39 42 10 92
-53 92 -22 0 -45 -7 -54 -16z"/>
<path d="M9804 5999 c-16 -17 -19 -37 -19 -106 0 -77 2 -87 24 -104 30 -25 63
-24 87 2 15 17 19 37 19 104 0 93 -16 125 -65 125 -15 0 -35 -9 -46 -21z"/>
<path d="M10409 5890 c-1 -5 -1 -17 -1 -25 0 -114 0 -115 35 -115 43 0 67 26
67 71 0 43 -8 55 -43 68 -35 14 -57 14 -58 1z"/>
<path d="M3900 5754 c0 -34 1 -35 31 -32 63 6 67 68 4 68 -33 0 -35 -2 -35
-36z"/>
<path d="M3292 5748 c-25 -25 -13 -38 33 -38 33 0 45 4 45 15 0 28 -56 45 -78
23z"/>
<path d="M1984 4576 c-68 -17 -131 -55 -183 -111 -162 -176 -113 -450 101
-566 60 -33 67 -34 168 -34 101 0 108 1 168 34 105 57 171 148 193 266 33 181
-93 368 -280 411 -67 16 -100 16 -167 0z m83 -318 l83 -83 0 63 c0 55 2 63 18
60 15 -3 17 -16 17 -98 l0 -95 -95 0 c-82 0 -95 2 -98 18 -3 15 5 17 57 17 34
0 61 3 61 7 0 4 -37 44 -81 89 -74 75 -90 104 -56 104 6 0 49 -37 94 -82z"/>
<path d="M4217 4538 c-25 -20 -36 -60 -32 -121 5 -76 18 -97 60 -97 53 0 68
22 68 105 0 65 -5 87 -23 105 -23 23 -49 26 -73 8z"/>
<path d="M4717 4538 c-24 -19 -35 -59 -33 -119 3 -75 18 -99 61 -99 53 0 69
23 67 100 -1 78 -4 92 -22 110 -23 23 -49 26 -73 8z"/>
<path d="M3373 4470 c-50 -20 -60 -105 -17 -139 15 -12 36 -21 48 -21 82 0
102 132 24 159 -17 6 -31 11 -32 10 -1 0 -11 -4 -23 -9z"/>
<path d="M9504 4299 c-16 -17 -19 -37 -19 -106 0 -77 2 -87 24 -104 30 -25 63
-24 87 2 15 17 19 37 19 104 0 93 -16 125 -65 125 -15 0 -35 -9 -46 -21z"/>
<path d="M9804 4299 c-16 -17 -19 -37 -19 -106 0 -77 2 -87 24 -104 30 -25 63
-24 87 2 15 17 19 37 19 104 0 93 -16 125 -65 125 -15 0 -35 -9 -46 -21z"/>
<path d="M10410 4126 l0 -76 33 0 c43 0 67 26 67 72 0 41 -22 65 -68 74 l-32
7 0 -77z"/>
<path d="M2940 4060 c0 -30 2 -31 38 -28 32 3 37 6 37 28 0 22 -5 25 -37 28
-36 3 -38 2 -38 -28z"/>
<path d="M2940 3986 c0 -33 3 -36 28 -36 38 0 54 13 50 41 -2 20 -10 25 -40
27 -37 3 -38 3 -38 -32z"/>
<path d="M3600 4019 l0 -72 42 6 c47 6 68 27 68 67 0 44 -26 70 -71 70 l-39 0
0 -71z"/>
<path d="M4158 4049 c-21 -12 -24 -69 -6 -87 7 -7 21 -12 33 -12 30 0 45 19
45 55 0 49 -31 68 -72 44z"/>
<path d="M4412 4048 c-25 -25 -13 -38 33 -38 33 0 45 4 45 15 0 28 -56 45 -78
23z"/>
<path d="M1984 2876 c-68 -17 -131 -55 -183 -111 -162 -176 -114 -450 101
-566 60 -33 67 -34 168 -34 127 0 175 19 261 105 72 71 102 144 102 250 1 171
-115 317 -282 356 -67 16 -100 16 -167 0z m83 -318 l83 -83 0 63 c0 55 2 63
18 60 15 -3 17 -16 17 -98 l0 -95 -95 0 c-82 0 -95 2 -98 18 -3 15 5 17 57 17
34 0 61 3 61 7 0 4 -37 44 -81 89 -74 75 -90 104 -56 104 6 0 49 -37 94 -82z"/>
<path d="M4351 2833 c-28 -23 -37 -131 -16 -180 12 -28 19 -33 47 -33 48 0 61
13 67 67 16 128 -32 199 -98 146z"/>
<path d="M4856 2837 c-34 -25 -43 -145 -14 -199 9 -19 62 -24 87 -9 18 11 28
91 20 150 -8 62 -51 89 -93 58z"/>
<path d="M3746 2759 c-46 -36 -35 -49 44 -49 77 0 84 7 45 45 -30 30 -54 31
-89 4z"/>
<path d="M10410 2416 l0 -76 33 0 c43 0 67 26 67 72 0 41 -22 65 -68 74 l-32
7 0 -77z"/>
<path d="M3900 2354 c0 -34 1 -35 31 -32 63 6 67 68 4 68 -33 0 -35 -2 -35
-36z"/>
<path d="M3292 2348 c-25 -25 -13 -38 33 -38 33 0 45 4 45 15 0 28 -56 45 -78
23z"/>
<path d="M4256 1471 l-77 -79 3 -129 3 -128 40 0 40 0 5 83 c6 95 11 102 82
102 64 0 78 -21 78 -117 l0 -73 40 0 40 0 0 133 0 132 -78 78 c-42 42 -82 77
-88 77 -6 0 -45 -36 -88 -79z"/>
<path d="M1980 1175 c-226 -64 -339 -306 -238 -514 29 -60 111 -141 170 -169
146 -68 320 -33 428 85 64 70 93 144 93 243 0 108 -29 177 -107 256 -95 95
-225 132 -346 99z m208 -332 c-2 -79 -6 -98 -18 -98 -11 0 -16 15 -18 59 l-3
59 -83 -82 c-46 -44 -89 -81 -95 -81 -6 0 -14 7 -18 16 -4 11 20 42 78 100
l84 84 -57 0 c-55 0 -76 10 -63 30 3 6 49 10 101 10 l95 0 -3 -97z"/>
<path d="M10410 716 l0 -76 33 0 c43 0 67 26 67 72 0 41 -22 65 -68 74 l-32 7
0 -77z"/>
<path d="M3097 635 l-16 -45 35 0 c32 0 35 2 28 23 -13 41 -23 67 -28 67 -2 0
-11 -20 -19 -45z"/>
<path d="M3837 635 l-16 -45 35 0 c32 0 35 2 28 23 -13 41 -23 67 -28 67 -2 0
-11 -20 -19 -45z"/>
<path d="M3970 654 c0 -34 1 -35 31 -32 63 6 67 68 4 68 -33 0 -35 -2 -35 -36z"/>
</g>
</svg>
