<?xml version="1.0" standalone="no"?>
<!DOCTYPE svg PUBLIC "-//W3C//DTD SVG 20010904//EN"
 "http://www.w3.org/TR/2001/REC-SVG-20010904/DTD/svg10.dtd">
<svg version="1.0" xmlns="http://www.w3.org/2000/svg"
 width="2875.000000pt" height="2875.000000pt" viewBox="0 0 2875.000000 2875.000000"
 preserveAspectRatio="xMidYMid meet">
<metadata>
Created by potrace 1.14, written by Peter Selinger 2001-2017
</metadata>
<g transform="translate(0.000000,2875.000000) scale(0.100000,-0.100000)"
fill="#000000" stroke="none">
<path d="M14069 21326 c-2 -2 -58 -6 -124 -10 -66 -3 -136 -8 -155 -10 -19 -3
-66 -7 -105 -11 -71 -6 -139 -14 -185 -21 -14 -2 -50 -6 -80 -10 -30 -3 -64
-8 -75 -10 -11 -3 -38 -7 -60 -9 -22 -3 -47 -7 -55 -10 -8 -2 -35 -7 -60 -10
-25 -4 -63 -10 -85 -15 -22 -5 -56 -12 -75 -15 -19 -3 -75 -15 -125 -26 -49
-12 -97 -22 -105 -24 -63 -14 -273 -70 -425 -114 -127 -37 -366 -121 -534
-188 -416 -165 -734 -326 -1177 -598 -247 -151 -667 -472 -934 -713 -91 -82
-396 -385 -470 -467 -205 -227 -560 -673 -560 -704 0 -5 -4 -11 -9 -13 -13 -5
-158 -225 -258 -393 -267 -444 -466 -875 -638 -1380 -45 -133 -130 -423 -141
-484 -3 -14 -7 -28 -9 -31 -2 -4 -7 -22 -10 -41 -3 -19 -12 -59 -20 -89 -8
-30 -16 -68 -19 -85 -3 -16 -8 -39 -10 -50 -3 -11 -14 -67 -24 -125 -18 -93
-26 -136 -37 -205 -2 -11 -11 -72 -19 -135 -9 -63 -19 -133 -22 -155 -2 -21
-7 -69 -10 -105 -2 -36 -7 -83 -9 -105 -27 -224 -27 -915 -1 -1185 2 -19 7
-67 10 -107 10 -107 16 -152 46 -353 19 -133 26 -171 35 -220 3 -14 7 -36 10
-50 71 -390 217 -891 377 -1285 22 -55 24 -59 96 -225 69 -158 216 -450 303
-600 39 -69 80 -140 91 -159 11 -19 37 -61 59 -93 21 -33 39 -64 39 -69 0 -5
5 -9 10 -9 6 0 10 -5 10 -11 0 -5 25 -47 57 -92 132 -191 168 -243 180 -255 7
-7 13 -17 13 -20 0 -4 10 -18 23 -32 12 -14 34 -41 47 -60 14 -19 32 -44 42
-55 9 -11 51 -63 93 -115 161 -198 244 -289 460 -506 272 -273 480 -455 781
-682 17 -12 75 -53 130 -91 54 -39 104 -73 109 -78 15 -12 220 -145 300 -193
156 -96 398 -227 567 -308 143 -69 160 -77 273 -127 80 -35 274 -115 305 -125
14 -5 63 -22 110 -40 258 -95 714 -226 895 -255 22 -4 54 -11 70 -16 87 -25
509 -88 700 -104 44 -4 91 -9 105 -11 169 -26 920 -26 1185 1 22 2 69 7 105
10 36 4 79 8 95 10 17 3 50 7 75 9 63 7 101 13 305 46 203 34 196 33 286 54
37 8 78 17 90 20 29 5 221 52 269 66 695 196 1235 429 1825 789 77 46 142 88
145 91 3 4 15 12 28 19 21 11 239 161 272 187 8 7 65 49 125 95 61 45 124 94
141 108 17 14 52 44 79 66 51 42 178 151 255 220 25 22 126 121 225 220 161
161 209 210 321 336 159 179 395 487 564 739 179 265 401 662 525 940 26 58
58 129 71 158 13 29 24 55 24 57 0 3 9 24 19 48 46 101 180 469 196 537 2 8
18 60 35 115 34 111 112 409 129 495 6 30 14 66 17 80 15 72 52 277 59 330 3
25 8 52 10 60 4 16 10 59 21 155 3 33 8 67 9 75 2 8 6 51 10 95 4 44 9 94 11
110 26 264 26 914 0 1185 -3 25 -8 76 -11 115 -4 38 -8 81 -10 95 -2 14 -7 48
-10 75 -3 28 -7 64 -10 80 -3 17 -7 48 -10 70 -46 337 -142 748 -262 1120
-222 688 -569 1370 -997 1955 -72 99 -246 321 -301 384 -5 6 -28 31 -49 56
-168 193 -447 479 -601 616 -189 168 -239 210 -409 342 -368 287 -794 553
-1209 755 -127 63 -152 74 -282 132 -342 152 -945 348 -1255 409 -14 2 -79 16
-145 29 -145 30 -223 43 -490 82 -54 7 -210 23 -410 41 -66 6 -781 15 -786 10z"/>
</g>
</svg>
